<?xml version="1.0" encoding="UTF-8" standalone="no"?>
<svg
   width="1440"
   height="696"
   viewbox="0 0 120 220"
   version="1.1"
   style="clip-rule:evenodd;fill-rule:evenodd;stroke-linejoin:round;stroke-miterlimit:2"
   xml:space="preserve"
   class="align-center"
   id="svg130"
   sodipodi:docname="logo_newsmall4.svg"
   inkscape:version="1.3.2 (091e20e, 2023-11-25)"
   viewBox="0 0 17280 8352"
   xmlns:inkscape="http://www.inkscape.org/namespaces/inkscape"
   xmlns:sodipodi="http://sodipodi.sourceforge.net/DTD/sodipodi-0.dtd"
   xmlns="http://www.w3.org/2000/svg"
   xmlns:svg="http://www.w3.org/2000/svg"><defs
     id="defs130"><rect
       x="22.054054"
       y="87.567566"
       width="38.43243"
       height="15.891892"
       id="rect135" /><rect
       x="18"
       y="90.324326"
       width="46.540543"
       height="17.513514"
       id="rect131" /></defs><sodipodi:namedview
     id="namedview130"
     pagecolor="#ffffff"
     bordercolor="#000000"
     borderopacity="0.25"
     inkscape:showpageshadow="2"
     inkscape:pageopacity="0.0"
     inkscape:pagecheckerboard="0"
     inkscape:deskcolor="#d1d1d1"
     inkscape:zoom="0.6"
     inkscape:cx="711.66667"
     inkscape:cy="305"
     inkscape:window-width="1392"
     inkscape:window-height="891"
     inkscape:window-x="350"
     inkscape:window-y="1117"
     inkscape:window-maximized="0"
     inkscape:current-layer="svg130"
     showguides="true"><sodipodi:guide
       position="366.25,110"
       orientation="1,0"
       id="guide2"
       inkscape:locked="false" /></sodipodi:namedview><rect
     transform="matrix(0.8757531,0.48275926,0,1,0,0)"
     x="14684.785"
     y="-5442.2026"
     width="1490.4045"
     height="1246.222"
     stroke="#ffffff"
     style="fill:#ffffff;stroke-width:27.2571"
     id="rect1" /><rect
     style="fill:#f18d3b;fill-opacity:0.5;stroke-width:27.2571"
     transform="matrix(0.8757531,0.48275926,0,1,0,0)"
     x="14684.785"
     y="-5442.2026"
     width="298.0809"
     height="249.24438"
     stroke="#ffffff"
     id="rect2" /><rect
     style="fill:#f18d3b;fill-opacity:1;stroke-width:27.2571"
     transform="matrix(0.8757531,0.48275926,0,1,0,0)"
     x="14684.785"
     y="-5192.9575"
     width="298.0809"
     height="249.24438"
     stroke="#ffffff"
     id="rect3" /><rect
     style="fill:#f18d3b;fill-opacity:0.2;stroke-width:27.2571"
     transform="matrix(0.8757531,0.48275926,0,1,0,0)"
     x="14684.785"
     y="-4943.7139"
     width="298.0809"
     height="249.24438"
     stroke="#ffffff"
     id="rect4" /><rect
     style="fill:#f18d3b;fill-opacity:0.2;stroke-width:27.2571"
     transform="matrix(0.8757531,0.48275926,0,1,0,0)"
     x="14684.785"
     y="-4694.4697"
     width="298.0809"
     height="249.24438"
     stroke="#ffffff"
     id="rect5" /><rect
     style="fill:#f18d3b;fill-opacity:0.2;stroke-width:27.2571"
     transform="matrix(0.8757531,0.48275926,0,1,0,0)"
     x="14684.785"
     y="-4445.2251"
     width="298.0809"
     height="249.24438"
     stroke="#ffffff"
     id="rect6" /><rect
     style="fill:#f18d3b;fill-opacity:0.2;stroke-width:27.2571"
     transform="matrix(0.8757531,0.48275926,0,1,0,0)"
     x="14982.877"
     y="-5442.2026"
     width="298.0809"
     height="249.24438"
     stroke="#ffffff"
     id="rect7" /><rect
     style="fill:#f18d3b;fill-opacity:0.2;stroke-width:27.2571"
     transform="matrix(0.8757531,0.48275926,0,1,0,0)"
     x="14982.877"
     y="-5192.9575"
     width="298.0809"
     height="249.24438"
     stroke="#ffffff"
     id="rect8" /><rect
     style="fill:#f18d3b;fill-opacity:0.2;stroke-width:27.2571"
     transform="matrix(0.8757531,0.48275926,0,1,0,0)"
     x="14982.877"
     y="-4943.7139"
     width="298.0809"
     height="249.24438"
     stroke="#ffffff"
     id="rect9" /><rect
     style="fill:#f18d3b;fill-opacity:0.5;stroke-width:27.2571"
     transform="matrix(0.8757531,0.48275926,0,1,0,0)"
     x="14982.877"
     y="-4694.4697"
     width="298.0809"
     height="249.24438"
     stroke="#ffffff"
     id="rect10" /><rect
     style="fill:#f18d3b;fill-opacity:0.5;stroke-width:27.2571"
     transform="matrix(0.8757531,0.48275926,0,1,0,0)"
     x="14982.877"
     y="-4445.2251"
     width="298.0809"
     height="249.24438"
     stroke="#ffffff"
     id="rect11" /><rect
     style="fill:#f18d3b;fill-opacity:0.5;stroke-width:27.2571"
     transform="matrix(0.8757531,0.48275926,0,1,0,0)"
     x="15280.96"
     y="-5442.2026"
     width="298.0809"
     height="249.24438"
     stroke="#ffffff"
     id="rect12" /><rect
     style="fill:#f18d3b;fill-opacity:1;stroke-width:27.2571"
     transform="matrix(0.8757531,0.48275926,0,1,0,0)"
     x="15280.96"
     y="-5192.9575"
     width="298.0809"
     height="249.24438"
     stroke="#ffffff"
     id="rect13" /><rect
     style="fill:#f18d3b;fill-opacity:0.2;stroke-width:27.2571"
     transform="matrix(0.8757531,0.48275926,0,1,0,0)"
     x="15280.96"
     y="-4943.7139"
     width="298.0809"
     height="249.24438"
     stroke="#ffffff"
     id="rect14" /><rect
     style="fill:#f18d3b;fill-opacity:1;stroke-width:27.2571"
     transform="matrix(0.8757531,0.48275926,0,1,0,0)"
     x="15280.96"
     y="-4694.4697"
     width="298.0809"
     height="249.24438"
     stroke="#ffffff"
     id="rect15" /><rect
     style="fill:#f18d3b;fill-opacity:0.2;stroke-width:27.2571"
     transform="matrix(0.8757531,0.48275926,0,1,0,0)"
     x="15280.96"
     y="-4445.2251"
     width="298.0809"
     height="249.24438"
     stroke="#ffffff"
     id="rect16" /><rect
     style="fill:#f18d3b;fill-opacity:1;stroke-width:27.2571"
     transform="matrix(0.8757531,0.48275926,0,1,0,0)"
     x="15579.043"
     y="-5442.2026"
     width="298.0809"
     height="249.24438"
     stroke="#ffffff"
     id="rect17" /><rect
     style="fill:#f18d3b;fill-opacity:0.5;stroke-width:27.2571"
     transform="matrix(0.8757531,0.48275926,0,1,0,0)"
     x="15579.043"
     y="-5192.9575"
     width="298.0809"
     height="249.24438"
     stroke="#ffffff"
     id="rect18" /><rect
     style="fill:#f18d3b;fill-opacity:0.5;stroke-width:27.2571"
     transform="matrix(0.8757531,0.48275926,0,1,0,0)"
     x="15579.043"
     y="-4943.7139"
     width="298.0809"
     height="249.24438"
     stroke="#ffffff"
     id="rect19" /><rect
     style="fill:#f18d3b;fill-opacity:0.2;stroke-width:27.2571"
     transform="matrix(0.8757531,0.48275926,0,1,0,0)"
     x="15579.043"
     y="-4694.4697"
     width="298.0809"
     height="249.24438"
     stroke="#ffffff"
     id="rect20" /><rect
     style="fill:#f18d3b;fill-opacity:0.2;stroke-width:27.2571"
     transform="matrix(0.8757531,0.48275926,0,1,0,0)"
     x="15579.043"
     y="-4445.2251"
     width="298.0809"
     height="249.24438"
     stroke="#ffffff"
     id="rect21" /><rect
     style="fill:#f18d3b;fill-opacity:1;stroke-width:27.2571"
     transform="matrix(0.8757531,0.48275926,0,1,0,0)"
     x="15877.124"
     y="-5442.2026"
     width="298.0809"
     height="249.24438"
     stroke="#ffffff"
     id="rect22" /><rect
     style="fill:#f18d3b;fill-opacity:1;stroke-width:27.2571"
     transform="matrix(0.8757531,0.48275926,0,1,0,0)"
     x="15877.124"
     y="-5192.9575"
     width="298.0809"
     height="249.24438"
     stroke="#ffffff"
     id="rect23" /><rect
     style="fill:#f18d3b;fill-opacity:0.2;stroke-width:27.2571"
     transform="matrix(0.8757531,0.48275926,0,1,0,0)"
     x="15877.124"
     y="-4943.7139"
     width="298.0809"
     height="249.24438"
     stroke="#ffffff"
     id="rect24" /><rect
     style="fill:#f18d3b;fill-opacity:1;stroke-width:27.2571"
     transform="matrix(0.8757531,0.48275926,0,1,0,0)"
     x="15877.124"
     y="-4694.4697"
     width="298.0809"
     height="249.24438"
     stroke="#ffffff"
     id="rect25" /><rect
     style="fill:#f18d3b;fill-opacity:1;stroke-width:27.2571"
     transform="matrix(0.8757531,0.48275926,0,1,0,0)"
     x="15877.124"
     y="-4445.2251"
     width="298.0809"
     height="249.24438"
     stroke="#ffffff"
     id="rect26" /><rect
     transform="matrix(0.8757531,0.48275926,-0.8757531,0.48275926,0,0)"
     x="10338.966"
     y="-4345.8311"
     width="1490.4045"
     height="1490.4045"
     stroke="#ffffff"
     style="fill:#ffffff;stroke-width:29.8081"
     id="rect27" /><rect
     style="fill:#f18d3b;fill-opacity:1;stroke-width:29.8081"
     transform="matrix(0.8757531,0.48275926,-0.8757531,0.48275926,0,0)"
     x="10338.966"
     y="-4345.8311"
     width="298.0809"
     height="298.0809"
     stroke="#ffffff"
     id="rect28" /><rect
     style="fill:#f18d3b;fill-opacity:0.2;stroke-width:29.8081"
     transform="matrix(0.8757531,0.48275926,-0.8757531,0.48275926,0,0)"
     x="10338.966"
     y="-4047.7512"
     width="298.0809"
     height="298.0809"
     stroke="#ffffff"
     id="rect29" /><rect
     style="fill:#f18d3b;fill-opacity:0.2;stroke-width:29.8081"
     transform="matrix(0.8757531,0.48275926,-0.8757531,0.48275926,0,0)"
     x="10338.966"
     y="-3749.6687"
     width="298.0809"
     height="298.0809"
     stroke="#ffffff"
     id="rect30" /><rect
     style="fill:#f18d3b;fill-opacity:0.2;stroke-width:29.8081"
     transform="matrix(0.8757531,0.48275926,-0.8757531,0.48275926,0,0)"
     x="10338.966"
     y="-3451.5876"
     width="298.0809"
     height="298.0809"
     stroke="#ffffff"
     id="rect31" /><rect
     style="fill:#f18d3b;fill-opacity:1;stroke-width:29.8081"
     transform="matrix(0.8757531,0.48275926,-0.8757531,0.48275926,0,0)"
     x="10338.966"
     y="-3153.5076"
     width="298.0809"
     height="298.0809"
     stroke="#ffffff"
     id="rect32" /><rect
     style="fill:#f18d3b;fill-opacity:0.2;stroke-width:29.8081"
     transform="matrix(0.8757531,0.48275926,-0.8757531,0.48275926,0,0)"
     x="10637.049"
     y="-4345.8311"
     width="298.0809"
     height="298.0809"
     stroke="#ffffff"
     id="rect33" /><rect
     style="fill:#f18d3b;fill-opacity:0.5;stroke-width:29.8081"
     transform="matrix(0.8757531,0.48275926,-0.8757531,0.48275926,0,0)"
     x="10637.049"
     y="-4047.7512"
     width="298.0809"
     height="298.0809"
     stroke="#ffffff"
     id="rect34" /><rect
     style="fill:#f18d3b;fill-opacity:1;stroke-width:29.8081"
     transform="matrix(0.8757531,0.48275926,-0.8757531,0.48275926,0,0)"
     x="10637.049"
     y="-3749.6687"
     width="298.0809"
     height="298.0809"
     stroke="#ffffff"
     id="rect35" /><rect
     style="fill:#f18d3b;fill-opacity:0.5;stroke-width:29.8081"
     transform="matrix(0.8757531,0.48275926,-0.8757531,0.48275926,0,0)"
     x="10637.049"
     y="-3451.5876"
     width="298.0809"
     height="298.0809"
     stroke="#ffffff"
     id="rect36" /><rect
     style="fill:#f18d3b;fill-opacity:1;stroke-width:29.8081"
     transform="matrix(0.8757531,0.48275926,-0.8757531,0.48275926,0,0)"
     x="10637.049"
     y="-3153.5076"
     width="298.0809"
     height="298.0809"
     stroke="#ffffff"
     id="rect37" /><rect
     style="fill:#f18d3b;fill-opacity:0.2;stroke-width:29.8081"
     transform="matrix(0.8757531,0.48275926,-0.8757531,0.48275926,0,0)"
     x="10935.134"
     y="-4345.8311"
     width="298.0809"
     height="298.0809"
     stroke="#ffffff"
     id="rect38" /><rect
     style="fill:#f18d3b;fill-opacity:1;stroke-width:29.8081"
     transform="matrix(0.8757531,0.48275926,-0.8757531,0.48275926,0,0)"
     x="10935.134"
     y="-4047.7512"
     width="298.0809"
     height="298.0809"
     stroke="#ffffff"
     id="rect39" /><rect
     style="fill:#f18d3b;fill-opacity:1;stroke-width:29.8081"
     transform="matrix(0.8757531,0.48275926,-0.8757531,0.48275926,0,0)"
     x="10935.134"
     y="-3749.6687"
     width="298.0809"
     height="298.0809"
     stroke="#ffffff"
     id="rect40" /><rect
     style="fill:#f18d3b;fill-opacity:0.2;stroke-width:29.8081"
     transform="matrix(0.8757531,0.48275926,-0.8757531,0.48275926,0,0)"
     x="10935.134"
     y="-3451.5876"
     width="298.0809"
     height="298.0809"
     stroke="#ffffff"
     id="rect41" /><rect
     style="fill:#f18d3b;fill-opacity:1;stroke-width:29.8081"
     transform="matrix(0.8757531,0.48275926,-0.8757531,0.48275926,0,0)"
     x="10935.134"
     y="-3153.5076"
     width="298.0809"
     height="298.0809"
     stroke="#ffffff"
     id="rect42" /><rect
     style="fill:#f18d3b;fill-opacity:1;stroke-width:29.8081"
     transform="matrix(0.8757531,0.48275926,-0.8757531,0.48275926,0,0)"
     x="11233.202"
     y="-4345.8311"
     width="298.0809"
     height="298.0809"
     stroke="#ffffff"
     id="rect43" /><rect
     style="fill:#f18d3b;fill-opacity:1;stroke-width:29.8081"
     transform="matrix(0.8757531,0.48275926,-0.8757531,0.48275926,0,0)"
     x="11233.202"
     y="-4047.7512"
     width="298.0809"
     height="298.0809"
     stroke="#ffffff"
     id="rect44" /><rect
     style="fill:#f18d3b;fill-opacity:0.2;stroke-width:29.8081"
     transform="matrix(0.8757531,0.48275926,-0.8757531,0.48275926,0,0)"
     x="11233.202"
     y="-3749.6687"
     width="298.0809"
     height="298.0809"
     stroke="#ffffff"
     id="rect45" /><rect
     style="fill:#f18d3b;fill-opacity:1;stroke-width:29.8081"
     transform="matrix(0.8757531,0.48275926,-0.8757531,0.48275926,0,0)"
     x="11233.202"
     y="-3451.5876"
     width="298.0809"
     height="298.0809"
     stroke="#ffffff"
     id="rect46" /><rect
     style="fill:#f18d3b;fill-opacity:0.2;stroke-width:29.8081"
     transform="matrix(0.8757531,0.48275926,-0.8757531,0.48275926,0,0)"
     x="11233.202"
     y="-3153.5076"
     width="298.0809"
     height="298.0809"
     stroke="#ffffff"
     id="rect47" /><rect
     style="fill:#f18d3b;fill-opacity:0.5;stroke-width:29.8081"
     transform="matrix(0.8757531,0.48275926,-0.8757531,0.48275926,0,0)"
     x="11531.283"
     y="-4345.8311"
     width="298.0809"
     height="298.0809"
     stroke="#ffffff"
     id="rect48" /><rect
     style="fill:#f18d3b;fill-opacity:1;stroke-width:29.8081"
     transform="matrix(0.8757531,0.48275926,-0.8757531,0.48275926,0,0)"
     x="11531.283"
     y="-4047.7512"
     width="298.0809"
     height="298.0809"
     stroke="#ffffff"
     id="rect49" /><rect
     style="fill:#f18d3b;fill-opacity:0.2;stroke-width:29.8081"
     transform="matrix(0.8757531,0.48275926,-0.8757531,0.48275926,0,0)"
     x="11531.283"
     y="-3749.6687"
     width="298.0809"
     height="298.0809"
     stroke="#ffffff"
     id="rect50" /><rect
     style="fill:#f18d3b;fill-opacity:0.2;stroke-width:29.8081"
     transform="matrix(0.8757531,0.48275926,-0.8757531,0.48275926,0,0)"
     x="11531.283"
     y="-3451.5876"
     width="298.0809"
     height="298.0809"
     stroke="#ffffff"
     id="rect51" /><rect
     style="fill:#f18d3b;fill-opacity:0.2;stroke-width:29.8081"
     transform="matrix(0.8757531,0.48275926,-0.8757531,0.48275926,0,0)"
     x="11531.283"
     y="-3153.5076"
     width="298.0809"
     height="298.0809"
     stroke="#ffffff"
     id="rect52" /><rect
     transform="matrix(0.8757531,0.48275926,0,1,0,0)"
     x="13194.383"
     y="-2756.967"
     width="1490.4045"
     height="1246.222"
     stroke="#ffffff"
     style="fill:#ffffff;stroke-width:27.2571"
     id="rect53" /><rect
     style="fill:#459bb5;fill-opacity:0.2;stroke-width:27.2571"
     transform="matrix(0.8757531,0.48275926,0,1,0,0)"
     x="13194.383"
     y="-2756.967"
     width="298.0809"
     height="249.24438"
     stroke="#ffffff"
     id="rect54" /><rect
     style="fill:#459bb5;fill-opacity:1;stroke-width:27.2571"
     transform="matrix(0.8757531,0.48275926,0,1,0,0)"
     x="13194.383"
     y="-2507.7214"
     width="298.0809"
     height="249.24438"
     stroke="#ffffff"
     id="rect55" /><rect
     style="fill:#459bb5;fill-opacity:0.2;stroke-width:27.2571"
     transform="matrix(0.8757531,0.48275926,0,1,0,0)"
     x="13194.383"
     y="-2258.4775"
     width="298.0809"
     height="249.24438"
     stroke="#ffffff"
     id="rect56" /><rect
     style="fill:#459bb5;fill-opacity:0.2;stroke-width:27.2571"
     transform="matrix(0.8757531,0.48275926,0,1,0,0)"
     x="13194.383"
     y="-2009.2339"
     width="298.0809"
     height="249.24438"
     stroke="#ffffff"
     id="rect57" /><rect
     style="fill:#459bb5;fill-opacity:0.5;stroke-width:27.2571"
     transform="matrix(0.8757531,0.48275926,0,1,0,0)"
     x="13194.383"
     y="-1759.9878"
     width="298.0809"
     height="249.24438"
     stroke="#ffffff"
     id="rect58" /><rect
     style="fill:#459bb5;fill-opacity:0.2;stroke-width:27.2571"
     transform="matrix(0.8757531,0.48275926,0,1,0,0)"
     x="13492.467"
     y="-2756.967"
     width="298.0809"
     height="249.24438"
     stroke="#ffffff"
     id="rect59" /><rect
     style="fill:#459bb5;fill-opacity:0.5;stroke-width:27.2571"
     transform="matrix(0.8757531,0.48275926,0,1,0,0)"
     x="13492.467"
     y="-2507.7214"
     width="298.0809"
     height="249.24438"
     stroke="#ffffff"
     id="rect60" /><rect
     style="fill:#459bb5;fill-opacity:0.2;stroke-width:27.2571"
     transform="matrix(0.8757531,0.48275926,0,1,0,0)"
     x="13492.467"
     y="-2258.4775"
     width="298.0809"
     height="249.24438"
     stroke="#ffffff"
     id="rect61" /><rect
     style="fill:#459bb5;fill-opacity:0.5;stroke-width:27.2571"
     transform="matrix(0.8757531,0.48275926,0,1,0,0)"
     x="13492.467"
     y="-2009.2339"
     width="298.0809"
     height="249.24438"
     stroke="#ffffff"
     id="rect62" /><rect
     style="fill:#459bb5;fill-opacity:1;stroke-width:27.2571"
     transform="matrix(0.8757531,0.48275926,0,1,0,0)"
     x="13492.467"
     y="-1759.9878"
     width="298.0809"
     height="249.24438"
     stroke="#ffffff"
     id="rect63" /><rect
     style="fill:#459bb5;fill-opacity:0.2;stroke-width:27.2571"
     transform="matrix(0.8757531,0.48275926,0,1,0,0)"
     x="13790.55"
     y="-2756.967"
     width="298.0809"
     height="249.24438"
     stroke="#ffffff"
     id="rect64" /><rect
     style="fill:#459bb5;fill-opacity:0.5;stroke-width:27.2571"
     transform="matrix(0.8757531,0.48275926,0,1,0,0)"
     x="13790.55"
     y="-2507.7214"
     width="298.0809"
     height="249.24438"
     stroke="#ffffff"
     id="rect65" /><rect
     style="fill:#459bb5;fill-opacity:1;stroke-width:27.2571"
     transform="matrix(0.8757531,0.48275926,0,1,0,0)"
     x="13790.55"
     y="-2258.4775"
     width="298.0809"
     height="249.24438"
     stroke="#ffffff"
     id="rect66" /><rect
     style="fill:#459bb5;fill-opacity:0.5;stroke-width:27.2571"
     transform="matrix(0.8757531,0.48275926,0,1,0,0)"
     x="13790.55"
     y="-2009.2339"
     width="298.0809"
     height="249.24438"
     stroke="#ffffff"
     id="rect67" /><rect
     style="fill:#459bb5;fill-opacity:0.2;stroke-width:27.2571"
     transform="matrix(0.8757531,0.48275926,0,1,0,0)"
     x="13790.55"
     y="-1759.9878"
     width="298.0809"
     height="249.24438"
     stroke="#ffffff"
     id="rect68" /><rect
     style="fill:#459bb5;fill-opacity:0.5;stroke-width:27.2571"
     transform="matrix(0.8757531,0.48275926,0,1,0,0)"
     x="14088.633"
     y="-2756.967"
     width="298.0809"
     height="249.24438"
     stroke="#ffffff"
     id="rect69" /><rect
     style="fill:#459bb5;fill-opacity:1;stroke-width:27.2571"
     transform="matrix(0.8757531,0.48275926,0,1,0,0)"
     x="14088.633"
     y="-2507.7214"
     width="298.0809"
     height="249.24438"
     stroke="#ffffff"
     id="rect70" /><rect
     style="fill:#459bb5;fill-opacity:0.5;stroke-width:27.2571"
     transform="matrix(0.8757531,0.48275926,0,1,0,0)"
     x="14088.633"
     y="-2258.4775"
     width="298.0809"
     height="249.24438"
     stroke="#ffffff"
     id="rect71" /><rect
     style="fill:#459bb5;fill-opacity:1;stroke-width:27.2571"
     transform="matrix(0.8757531,0.48275926,0,1,0,0)"
     x="14088.633"
     y="-2009.2339"
     width="298.0809"
     height="249.24438"
     stroke="#ffffff"
     id="rect72" /><rect
     style="fill:#459bb5;fill-opacity:0.5;stroke-width:27.2571"
     transform="matrix(0.8757531,0.48275926,0,1,0,0)"
     x="14088.633"
     y="-1759.9878"
     width="298.0809"
     height="249.24438"
     stroke="#ffffff"
     id="rect73" /><rect
     style="fill:#459bb5;fill-opacity:1;stroke-width:27.2571"
     transform="matrix(0.8757531,0.48275926,0,1,0,0)"
     x="14386.717"
     y="-2756.967"
     width="298.0809"
     height="249.24438"
     stroke="#ffffff"
     id="rect74" /><rect
     style="fill:#459bb5;fill-opacity:0.2;stroke-width:27.2571"
     transform="matrix(0.8757531,0.48275926,0,1,0,0)"
     x="14386.717"
     y="-2507.7214"
     width="298.0809"
     height="249.24438"
     stroke="#ffffff"
     id="rect75" /><rect
     style="fill:#459bb5;fill-opacity:0.2;stroke-width:27.2571"
     transform="matrix(0.8757531,0.48275926,0,1,0,0)"
     x="14386.717"
     y="-2258.4775"
     width="298.0809"
     height="249.24438"
     stroke="#ffffff"
     id="rect76" /><rect
     style="fill:#459bb5;fill-opacity:1;stroke-width:27.2571"
     transform="matrix(0.8757531,0.48275926,0,1,0,0)"
     x="14386.717"
     y="-2009.2339"
     width="298.0809"
     height="249.24438"
     stroke="#ffffff"
     id="rect77" /><rect
     style="fill:#459bb5;fill-opacity:0.5;stroke-width:27.2571"
     transform="matrix(0.8757531,0.48275926,0,1,0,0)"
     x="14386.717"
     y="-1759.9878"
     width="298.0809"
     height="249.24438"
     stroke="#ffffff"
     id="rect78" /><rect
     transform="matrix(0.8757531,0.48275926,0,1,0,0)"
     x="13194.383"
     y="-1510.7448"
     width="1490.4045"
     height="1246.222"
     stroke="#ffffff"
     style="fill:#ffffff;stroke-width:27.2571"
     id="rect79" /><rect
     style="fill:#459bb5;fill-opacity:0.2;stroke-width:27.2571"
     transform="matrix(0.8757531,0.48275926,0,1,0,0)"
     x="13194.383"
     y="-1510.7448"
     width="298.0809"
     height="249.24438"
     stroke="#ffffff"
     id="rect80" /><rect
     style="fill:#459bb5;fill-opacity:1;stroke-width:27.2571"
     transform="matrix(0.8757531,0.48275926,0,1,0,0)"
     x="13194.383"
     y="-1261.4987"
     width="298.0809"
     height="249.24438"
     stroke="#ffffff"
     id="rect81" /><rect
     style="fill:#459bb5;fill-opacity:0.2;stroke-width:27.2571"
     transform="matrix(0.8757531,0.48275926,0,1,0,0)"
     x="13194.383"
     y="-1012.2556"
     width="298.0809"
     height="249.24438"
     stroke="#ffffff"
     id="rect82" /><rect
     style="fill:#459bb5;fill-opacity:1;stroke-width:27.2571"
     transform="matrix(0.8757531,0.48275926,0,1,0,0)"
     x="13194.383"
     y="-763.0105"
     width="298.0809"
     height="249.24438"
     stroke="#ffffff"
     id="rect83" /><rect
     style="fill:#459bb5;fill-opacity:1;stroke-width:27.2571"
     transform="matrix(0.8757531,0.48275926,0,1,0,0)"
     x="13194.383"
     y="-513.76752"
     width="298.0809"
     height="249.24438"
     stroke="#ffffff"
     id="rect84" /><rect
     style="fill:#459bb5;fill-opacity:1;stroke-width:27.2571"
     transform="matrix(0.8757531,0.48275926,0,1,0,0)"
     x="13492.467"
     y="-1510.7448"
     width="298.0809"
     height="249.24438"
     stroke="#ffffff"
     id="rect85" /><rect
     style="fill:#459bb5;fill-opacity:1;stroke-width:27.2571"
     transform="matrix(0.8757531,0.48275926,0,1,0,0)"
     x="13492.467"
     y="-1261.4987"
     width="298.0809"
     height="249.24438"
     stroke="#ffffff"
     id="rect86" /><rect
     style="fill:#459bb5;fill-opacity:1;stroke-width:27.2571"
     transform="matrix(0.8757531,0.48275926,0,1,0,0)"
     x="13492.467"
     y="-1012.2556"
     width="298.0809"
     height="249.24438"
     stroke="#ffffff"
     id="rect87" /><rect
     style="fill:#459bb5;fill-opacity:0.2;stroke-width:27.2571"
     transform="matrix(0.8757531,0.48275926,0,1,0,0)"
     x="13492.467"
     y="-763.0105"
     width="298.0809"
     height="249.24438"
     stroke="#ffffff"
     id="rect88" /><rect
     style="fill:#459bb5;fill-opacity:0.2;stroke-width:27.2571"
     transform="matrix(0.8757531,0.48275926,0,1,0,0)"
     x="13492.467"
     y="-513.76752"
     width="298.0809"
     height="249.24438"
     stroke="#ffffff"
     id="rect89" /><rect
     style="fill:#459bb5;fill-opacity:1;stroke-width:27.2571"
     transform="matrix(0.8757531,0.48275926,0,1,0,0)"
     x="13790.55"
     y="-1510.7448"
     width="298.0809"
     height="249.24438"
     stroke="#ffffff"
     id="rect90" /><rect
     style="fill:#459bb5;fill-opacity:0.5;stroke-width:27.2571"
     transform="matrix(0.8757531,0.48275926,0,1,0,0)"
     x="13790.55"
     y="-1261.4987"
     width="298.0809"
     height="249.24438"
     stroke="#ffffff"
     id="rect91" /><rect
     style="fill:#459bb5;fill-opacity:1;stroke-width:27.2571"
     transform="matrix(0.8757531,0.48275926,0,1,0,0)"
     x="13790.55"
     y="-1012.2556"
     width="298.0809"
     height="249.24438"
     stroke="#ffffff"
     id="rect92" /><rect
     style="fill:#459bb5;fill-opacity:1;stroke-width:27.2571"
     transform="matrix(0.8757531,0.48275926,0,1,0,0)"
     x="13790.55"
     y="-763.0105"
     width="298.0809"
     height="249.24438"
     stroke="#ffffff"
     id="rect93" /><rect
     style="fill:#459bb5;fill-opacity:1;stroke-width:27.2571"
     transform="matrix(0.8757531,0.48275926,0,1,0,0)"
     x="13790.55"
     y="-513.76752"
     width="298.0809"
     height="249.24438"
     stroke="#ffffff"
     id="rect94" /><rect
     style="fill:#459bb5;fill-opacity:0.2;stroke-width:27.2571"
     transform="matrix(0.8757531,0.48275926,0,1,0,0)"
     x="14088.633"
     y="-1510.7448"
     width="298.0809"
     height="249.24438"
     stroke="#ffffff"
     id="rect95" /><rect
     style="fill:#459bb5;fill-opacity:1;stroke-width:27.2571"
     transform="matrix(0.8757531,0.48275926,0,1,0,0)"
     x="14088.633"
     y="-1261.4987"
     width="298.0809"
     height="249.24438"
     stroke="#ffffff"
     id="rect96" /><rect
     style="fill:#459bb5;fill-opacity:0.5;stroke-width:27.2571"
     transform="matrix(0.8757531,0.48275926,0,1,0,0)"
     x="14088.633"
     y="-1012.2556"
     width="298.0809"
     height="249.24438"
     stroke="#ffffff"
     id="rect97" /><rect
     style="fill:#459bb5;fill-opacity:0.5;stroke-width:27.2571"
     transform="matrix(0.8757531,0.48275926,0,1,0,0)"
     x="14088.633"
     y="-763.0105"
     width="298.0809"
     height="249.24438"
     stroke="#ffffff"
     id="rect98" /><rect
     style="fill:#459bb5;fill-opacity:0.5;stroke-width:27.2571"
     transform="matrix(0.8757531,0.48275926,0,1,0,0)"
     x="14088.633"
     y="-513.76752"
     width="298.0809"
     height="249.24438"
     stroke="#ffffff"
     id="rect99" /><rect
     style="fill:#459bb5;fill-opacity:0.2;stroke-width:27.2571"
     transform="matrix(0.8757531,0.48275926,0,1,0,0)"
     x="14386.717"
     y="-1510.7448"
     width="298.0809"
     height="249.24438"
     stroke="#ffffff"
     id="rect100" /><rect
     style="fill:#459bb5;fill-opacity:1;stroke-width:27.2571"
     transform="matrix(0.8757531,0.48275926,0,1,0,0)"
     x="14386.717"
     y="-1261.4987"
     width="298.0809"
     height="249.24438"
     stroke="#ffffff"
     id="rect101" /><rect
     style="fill:#459bb5;fill-opacity:0.5;stroke-width:27.2571"
     transform="matrix(0.8757531,0.48275926,0,1,0,0)"
     x="14386.717"
     y="-1012.2556"
     width="298.0809"
     height="249.24438"
     stroke="#ffffff"
     id="rect102" /><rect
     style="fill:#459bb5;fill-opacity:0.2;stroke-width:27.2571"
     transform="matrix(0.8757531,0.48275926,0,1,0,0)"
     x="14386.717"
     y="-763.0105"
     width="298.0809"
     height="249.24438"
     stroke="#ffffff"
     id="rect103" /><rect
     style="fill:#459bb5;fill-opacity:1;stroke-width:27.2571"
     transform="matrix(0.8757531,0.48275926,0,1,0,0)"
     x="14386.717"
     y="-513.76752"
     width="298.0809"
     height="249.24438"
     stroke="#ffffff"
     id="rect104" /><rect
     transform="matrix(0.8757531,-0.48275926,0,1,0,0)"
     x="14684.785"
     y="11421.476"
     width="1490.4045"
     height="1246.222"
     stroke="#ffffff"
     style="fill:#ffffff;stroke-width:27.2571"
     id="rect105" /><rect
     style="fill:#677c83;fill-opacity:0.2;stroke-width:27.2571"
     transform="matrix(0.8757531,-0.48275926,0,1,0,0)"
     x="14684.785"
     y="11421.476"
     width="298.0809"
     height="249.24438"
     stroke="#ffffff"
     id="rect106" /><rect
     style="fill:#677c83;fill-opacity:0.5;stroke-width:27.2571"
     transform="matrix(0.8757531,-0.48275926,0,1,0,0)"
     x="14684.785"
     y="11670.722"
     width="298.0809"
     height="249.24438"
     stroke="#ffffff"
     id="rect107" /><rect
     style="fill:#677c83;fill-opacity:1;stroke-width:27.2571"
     transform="matrix(0.8757531,-0.48275926,0,1,0,0)"
     x="14684.785"
     y="11919.962"
     width="298.0809"
     height="249.24438"
     stroke="#ffffff"
     id="rect108" /><rect
     style="fill:#677c83;fill-opacity:0.5;stroke-width:27.2571"
     transform="matrix(0.8757531,-0.48275926,0,1,0,0)"
     x="14684.785"
     y="12169.212"
     width="298.0809"
     height="249.24438"
     stroke="#ffffff"
     id="rect109" /><rect
     style="fill:#677c83;fill-opacity:1;stroke-width:27.2571"
     transform="matrix(0.8757531,-0.48275926,0,1,0,0)"
     x="14684.785"
     y="12418.453"
     width="298.0809"
     height="249.24438"
     stroke="#ffffff"
     id="rect110" /><rect
     style="fill:#677c83;fill-opacity:1;stroke-width:27.2571"
     transform="matrix(0.8757531,-0.48275926,0,1,0,0)"
     x="14982.877"
     y="11421.476"
     width="298.0809"
     height="249.24438"
     stroke="#ffffff"
     id="rect111" /><rect
     style="fill:#677c83;fill-opacity:0.2;stroke-width:27.2571"
     transform="matrix(0.8757531,-0.48275926,0,1,0,0)"
     x="14982.877"
     y="11670.722"
     width="298.0809"
     height="249.24438"
     stroke="#ffffff"
     id="rect112" /><rect
     style="fill:#677c83;fill-opacity:1;stroke-width:27.2571"
     transform="matrix(0.8757531,-0.48275926,0,1,0,0)"
     x="14982.877"
     y="11919.962"
     width="298.0809"
     height="249.24438"
     stroke="#ffffff"
     id="rect113" /><rect
     style="fill:#677c83;fill-opacity:1;stroke-width:27.2571"
     transform="matrix(0.8757531,-0.48275926,0,1,0,0)"
     x="14982.877"
     y="12169.212"
     width="298.0809"
     height="249.24438"
     stroke="#ffffff"
     id="rect114" /><rect
     style="fill:#677c83;fill-opacity:1;stroke-width:27.2571"
     transform="matrix(0.8757531,-0.48275926,0,1,0,0)"
     x="14982.877"
     y="12418.453"
     width="298.0809"
     height="249.24438"
     stroke="#ffffff"
     id="rect115" /><rect
     style="fill:#677c83;fill-opacity:0.2;stroke-width:27.2571"
     transform="matrix(0.8757531,-0.48275926,0,1,0,0)"
     x="15280.96"
     y="11421.476"
     width="298.0809"
     height="249.24438"
     stroke="#ffffff"
     id="rect116" /><rect
     style="fill:#677c83;fill-opacity:0.2;stroke-width:27.2571"
     transform="matrix(0.8757531,-0.48275926,0,1,0,0)"
     x="15280.96"
     y="11670.722"
     width="298.0809"
     height="249.24438"
     stroke="#ffffff"
     id="rect117" /><rect
     style="fill:#677c83;fill-opacity:1;stroke-width:27.2571"
     transform="matrix(0.8757531,-0.48275926,0,1,0,0)"
     x="15280.96"
     y="11919.962"
     width="298.0809"
     height="249.24438"
     stroke="#ffffff"
     id="rect118" /><rect
     style="fill:#677c83;fill-opacity:1;stroke-width:27.2571"
     transform="matrix(0.8757531,-0.48275926,0,1,0,0)"
     x="15280.96"
     y="12169.212"
     width="298.0809"
     height="249.24438"
     stroke="#ffffff"
     id="rect119" /><rect
     style="fill:#677c83;fill-opacity:0.2;stroke-width:27.2571"
     transform="matrix(0.8757531,-0.48275926,0,1,0,0)"
     x="15280.96"
     y="12418.453"
     width="298.0809"
     height="249.24438"
     stroke="#ffffff"
     id="rect120" /><rect
     style="fill:#677c83;fill-opacity:1;stroke-width:27.2571"
     transform="matrix(0.8757531,-0.48275926,0,1,0,0)"
     x="15579.043"
     y="11421.476"
     width="298.0809"
     height="249.24438"
     stroke="#ffffff"
     id="rect121" /><rect
     style="fill:#677c83;fill-opacity:1;stroke-width:27.2571"
     transform="matrix(0.8757531,-0.48275926,0,1,0,0)"
     x="15579.043"
     y="11670.722"
     width="298.0809"
     height="249.24438"
     stroke="#ffffff"
     id="rect122" /><rect
     style="fill:#677c83;fill-opacity:1;stroke-width:27.2571"
     transform="matrix(0.8757531,-0.48275926,0,1,0,0)"
     x="15579.043"
     y="11919.962"
     width="298.0809"
     height="249.24438"
     stroke="#ffffff"
     id="rect123" /><rect
     style="fill:#677c83;fill-opacity:1;stroke-width:27.2571"
     transform="matrix(0.8757531,-0.48275926,0,1,0,0)"
     x="15579.043"
     y="12169.212"
     width="298.0809"
     height="249.24438"
     stroke="#ffffff"
     id="rect124" /><rect
     style="fill:#677c83;fill-opacity:0.2;stroke-width:27.2571"
     transform="matrix(0.8757531,-0.48275926,0,1,0,0)"
     x="15579.043"
     y="12418.453"
     width="298.0809"
     height="249.24438"
     stroke="#ffffff"
     id="rect125" /><rect
     style="fill:#677c83;fill-opacity:0.2;stroke-width:27.2571"
     transform="matrix(0.8757531,-0.48275926,0,1,0,0)"
     x="15877.124"
     y="11421.476"
     width="298.0809"
     height="249.24438"
     stroke="#ffffff"
     id="rect126" /><rect
     style="fill:#677c83;fill-opacity:0.2;stroke-width:27.2571"
     transform="matrix(0.8757531,-0.48275926,0,1,0,0)"
     x="15877.124"
     y="11670.722"
     width="298.0809"
     height="249.24438"
     stroke="#ffffff"
     id="rect127" /><rect
     style="fill:#677c83;fill-opacity:0.2;stroke-width:27.2571"
     transform="matrix(0.8757531,-0.48275926,0,1,0,0)"
     x="15877.124"
     y="11919.962"
     width="298.0809"
     height="249.24438"
     stroke="#ffffff"
     id="rect128" /><rect
     style="fill:#677c83;fill-opacity:0.2;stroke-width:27.2571"
     transform="matrix(0.8757531,-0.48275926,0,1,0,0)"
     x="15877.124"
     y="12169.212"
     width="298.0809"
     height="249.24438"
     stroke="#ffffff"
     id="rect129" /><rect
     style="fill:#677c83;fill-opacity:1;stroke-width:27.2571"
     transform="matrix(0.8757531,-0.48275926,0,1,0,0)"
     x="15877.124"
     y="12418.453"
     width="298.0809"
     height="249.24438"
     stroke="#ffffff"
     id="rect130" /><text
     xml:space="preserve"
     id="text131"
     style="white-space:pre;shape-inside:url(#rect131);display:inline;fill:#000000"
     transform="matrix(0.50639671,0,0,0.4835044,3271.2622,1621.6203)" /><text
     xml:space="preserve"
     style="font-style:normal;font-variant:normal;font-weight:normal;font-stretch:normal;font-size:5.93782px;font-family:'Hiragino Maru Gothic ProN';-inkscape-font-specification:'Hiragino Maru Gothic ProN';fill:#000000;stroke-width:0.494818"
     x="3210.5889"
     y="1699.766"
     id="text132"
     transform="scale(1.0233995,0.97713551)"><tspan
       sodipodi:role="line"
       id="tspan132"
       x="3210.5889"
       y="1699.766"
       style="stroke-width:0.494818" /></text><text
     xml:space="preserve"
     style="font-style:normal;font-variant:normal;font-weight:normal;font-stretch:normal;font-size:5.93782px;font-family:'Hiragino Maru Gothic ProN';-inkscape-font-specification:'Hiragino Maru Gothic ProN';fill:#000000;stroke-width:0.494818"
     x="3214.8416"
     y="1697.4391"
     id="text133"
     transform="scale(1.0233995,0.97713551)"><tspan
       sodipodi:role="line"
       id="tspan133"
       x="3214.8416"
       y="1697.4391"
       style="stroke-width:0.494818" /></text><text
     xml:space="preserve"
     id="text135"
     style="font-style:normal;font-variant:normal;font-weight:normal;font-stretch:normal;font-family:'Hiragino Maru Gothic ProN';-inkscape-font-specification:'Hiragino Maru Gothic ProN';white-space:pre;shape-inside:url(#rect135);display:inline;fill:#000000"
     transform="matrix(0.50639671,0,0,0.4835044,3271.2622,1621.6203)" /><text
     xml:space="preserve"
     style="font-style:normal;font-variant:normal;font-weight:normal;font-stretch:normal;font-size:2267.13px;font-family:'Hiragino Maru Gothic ProN';-inkscape-font-specification:'Hiragino Maru Gothic ProN';fill:#459bb5;fill-opacity:1;stroke-width:188.926"
     x="3309.0732"
     y="4374.4873"
     id="text1"
     transform="scale(0.96855602,1.0324648)"><tspan
       sodipodi:role="line"
       id="tspan1"
       x="3309.0732"
       y="4374.4873"
       style="stroke-width:188.926">sparse</tspan></text><text
     xml:space="preserve"
     style="font-style:normal;font-variant:normal;font-weight:normal;font-stretch:normal;font-size:2267.13px;font-family:'Hiragino Maru Gothic ProN';-inkscape-font-specification:'Hiragino Maru Gothic ProN';fill:#de7100;fill-opacity:1;stroke-width:188.926"
     x="3343.4341"
     y="4466.4038"
     id="text134"
     transform="scale(0.96855602,1.0324648)"><tspan
       sodipodi:role="line"
       id="tspan134"
       x="3343.4341"
       y="4466.4038"
       style="stroke-width:188.926">sparse</tspan></text></svg>
