<svg width="120" height="220" viewbox="0 0 120 220" version="1.1" style="fill-rule:evenodd;clip-rule:evenodd;stroke-linejoin:round;stroke-miterlimit:2;" xmlns="http://www.w3.org/2000/svg" xmlns:xlink="http://www.w3.org/1999/xlink" xml:space="preserve" xmlns:serif="http://www.serif.com/" class="align-center"><rect transform="matrix(1,0.5773502691896256,0,1,60,10)" x="0" y="0" width="50" height="50" stroke="white" style="fill:white;" /><rect style="fill:rgb(241,141,59);fill-opacity:0.2;" transform="matrix(1,0.5773502691896256,0,1,60,10.0)" x="0" y="0" width="10" height="10" stroke="white" /><rect style="fill:rgb(241,141,59);fill-opacity:1.0;" transform="matrix(1,0.5773502691896256,0,1,60,20.0)" x="0" y="0" width="10" height="10" stroke="white" /><rect style="fill:rgb(241,141,59);fill-opacity:0.0;" transform="matrix(1,0.5773502691896256,0,1,60,30.0)" x="0" y="0" width="10" height="10" stroke="white" /><rect style="fill:rgb(241,141,59);fill-opacity:0.2;" transform="matrix(1,0.5773502691896256,0,1,60,40.0)" x="0" y="0" width="10" height="10" stroke="white" /><rect style="fill:rgb(241,141,59);fill-opacity:0.0;" transform="matrix(1,0.5773502691896256,0,1,60,50.0)" x="0" y="0" width="10" height="10" stroke="white" /><rect style="fill:rgb(241,141,59);fill-opacity:0.0;" transform="matrix(1,0.5773502691896256,0,1,70,15.773502691896256)" x="0" y="0" width="10" height="10" stroke="white" /><rect style="fill:rgb(241,141,59);fill-opacity:0.0;" transform="matrix(1,0.5773502691896256,0,1,70,25.773502691896258)" x="0" y="0" width="10" height="10" stroke="white" /><rect style="fill:rgb(241,141,59);fill-opacity:0.2;" transform="matrix(1,0.5773502691896256,0,1,70,35.773502691896255)" x="0" y="0" width="10" height="10" stroke="white" /><rect style="fill:rgb(241,141,59);fill-opacity:0.2;" transform="matrix(1,0.5773502691896256,0,1,70,45.773502691896255)" x="0" y="0" width="10" height="10" stroke="white" /><rect style="fill:rgb(241,141,59);fill-opacity:0.8;" transform="matrix(1,0.5773502691896256,0,1,70,55.773502691896255)" x="0" y="0" width="10" height="10" stroke="white" /><rect style="fill:rgb(241,141,59);fill-opacity:0.2;" transform="matrix(1,0.5773502691896256,0,1,80,21.547005383792513)" x="0" y="0" width="10" height="10" stroke="white" /><rect style="fill:rgb(241,141,59);fill-opacity:0.8;" transform="matrix(1,0.5773502691896256,0,1,80,31.547005383792516)" x="0" y="0" width="10" height="10" stroke="white" /><rect style="fill:rgb(241,141,59);fill-opacity:0.0;" transform="matrix(1,0.5773502691896256,0,1,80,41.547005383792516)" x="0" y="0" width="10" height="10" stroke="white" /><rect style="fill:rgb(241,141,59);fill-opacity:1.0;" transform="matrix(1,0.5773502691896256,0,1,80,51.547005383792516)" x="0" y="0" width="10" height="10" stroke="white" /><rect style="fill:rgb(241,141,59);fill-opacity:0.0;" transform="matrix(1,0.5773502691896256,0,1,80,61.547005383792516)" x="0" y="0" width="10" height="10" stroke="white" /><rect style="fill:rgb(241,141,59);fill-opacity:0.8;" transform="matrix(1,0.5773502691896256,0,1,90,27.320508075688767)" x="0" y="0" width="10" height="10" stroke="white" /><rect style="fill:rgb(241,141,59);fill-opacity:0.2;" transform="matrix(1,0.5773502691896256,0,1,90,37.320508075688764)" x="0" y="0" width="10" height="10" stroke="white" /><rect style="fill:rgb(241,141,59);fill-opacity:0.8;" transform="matrix(1,0.5773502691896256,0,1,90,47.320508075688764)" x="0" y="0" width="10" height="10" stroke="white" /><rect style="fill:rgb(241,141,59);fill-opacity:0.0;" transform="matrix(1,0.5773502691896256,0,1,90,57.320508075688764)" x="0" y="0" width="10" height="10" stroke="white" /><rect style="fill:rgb(241,141,59);fill-opacity:0.0;" transform="matrix(1,0.5773502691896256,0,1,90,67.32050807568876)" x="0" y="0" width="10" height="10" stroke="white" /><rect style="fill:rgb(241,141,59);fill-opacity:1.0;" transform="matrix(1,0.5773502691896256,0,1,100,33.094010767585026)" x="0" y="0" width="10" height="10" stroke="white" /><rect style="fill:rgb(241,141,59);fill-opacity:1.0;" transform="matrix(1,0.5773502691896256,0,1,100,43.094010767585026)" x="0" y="0" width="10" height="10" stroke="white" /><rect style="fill:rgb(241,141,59);fill-opacity:0.2;" transform="matrix(1,0.5773502691896256,0,1,100,53.09401076758503)" x="0" y="0" width="10" height="10" stroke="white" /><rect style="fill:rgb(241,141,59);fill-opacity:0.8;" transform="matrix(1,0.5773502691896256,0,1,100,63.09401076758503)" x="0" y="0" width="10" height="10" stroke="white" /><rect style="fill:rgb(241,141,59);fill-opacity:1.0;" transform="matrix(1,0.5773502691896256,0,1,100,73.09401076758503)" x="0" y="0" width="10" height="10" stroke="white" /><rect transform="matrix(1,0.5773502691896256,-1,0.5773502691896256,60,60)" x="0" y="0" width="50" height="50" stroke="white" style="fill:white;" /><rect style="fill:rgb(241,141,59);fill-opacity:1.0;" transform="matrix(1,0.5773502691896256,-1,0.5773502691896256,60,60.0)" x="0" y="0" width="10" height="10" stroke="white" /><rect style="fill:rgb(241,141,59);fill-opacity:0.0;" transform="matrix(1,0.5773502691896256,-1,0.5773502691896256,50,65.77350269189625)" x="0" y="0" width="10" height="10" stroke="white" /><rect style="fill:rgb(241,141,59);fill-opacity:0.0;" transform="matrix(1,0.5773502691896256,-1,0.5773502691896256,40,71.54700538379251)" x="0" y="0" width="10" height="10" stroke="white" /><rect style="fill:rgb(241,141,59);fill-opacity:0.0;" transform="matrix(1,0.5773502691896256,-1,0.5773502691896256,30,77.32050807568876)" x="0" y="0" width="10" height="10" stroke="white" /><rect style="fill:rgb(241,141,59);fill-opacity:1.0;" transform="matrix(1,0.5773502691896256,-1,0.5773502691896256,20,83.09401076758503)" x="0" y="0" width="10" height="10" stroke="white" /><rect style="fill:rgb(241,141,59);fill-opacity:0.0;" transform="matrix(1,0.5773502691896256,-1,0.5773502691896256,70,65.77350269189625)" x="0" y="0" width="10" height="10" stroke="white" /><rect style="fill:rgb(241,141,59);fill-opacity:0.2;" transform="matrix(1,0.5773502691896256,-1,0.5773502691896256,60,71.54700538379251)" x="0" y="0" width="10" height="10" stroke="white" /><rect style="fill:rgb(241,141,59);fill-opacity:1.0;" transform="matrix(1,0.5773502691896256,-1,0.5773502691896256,50,77.32050807568876)" x="0" y="0" width="10" height="10" stroke="white" /><rect style="fill:rgb(241,141,59);fill-opacity:0.8;" transform="matrix(1,0.5773502691896256,-1,0.5773502691896256,40,83.09401076758503)" x="0" y="0" width="10" height="10" stroke="white" /><rect style="fill:rgb(241,141,59);fill-opacity:0.8;" transform="matrix(1,0.5773502691896256,-1,0.5773502691896256,30,88.86751345948129)" x="0" y="0" width="10" height="10" stroke="white" /><rect style="fill:rgb(241,141,59);fill-opacity:0.2;" transform="matrix(1,0.5773502691896256,-1,0.5773502691896256,80,71.54700538379251)" x="0" y="0" width="10" height="10" stroke="white" /><rect style="fill:rgb(241,141,59);fill-opacity:0.8;" transform="matrix(1,0.5773502691896256,-1,0.5773502691896256,70,77.32050807568876)" x="0" y="0" width="10" height="10" stroke="white" /><rect style="fill:rgb(241,141,59);fill-opacity:1.0;" transform="matrix(1,0.5773502691896256,-1,0.5773502691896256,60,83.09401076758503)" x="0" y="0" width="10" height="10" stroke="white" /><rect style="fill:rgb(241,141,59);fill-opacity:0.0;" transform="matrix(1,0.5773502691896256,-1,0.5773502691896256,50,88.86751345948129)" x="0" y="0" width="10" height="10" stroke="white" /><rect style="fill:rgb(241,141,59);fill-opacity:1.0;" transform="matrix(1,0.5773502691896256,-1,0.5773502691896256,40,94.64101615137753)" x="0" y="0" width="10" height="10" stroke="white" /><rect style="fill:rgb(241,141,59);fill-opacity:1.0;" transform="matrix(1,0.5773502691896256,-1,0.5773502691896256,90,77.32050807568876)" x="0" y="0" width="10" height="10" stroke="white" /><rect style="fill:rgb(241,141,59);fill-opacity:1.0;" transform="matrix(1,0.5773502691896256,-1,0.5773502691896256,80,83.09401076758503)" x="0" y="0" width="10" height="10" stroke="white" /><rect style="fill:rgb(241,141,59);fill-opacity:0.0;" transform="matrix(1,0.5773502691896256,-1,0.5773502691896256,70,88.86751345948129)" x="0" y="0" width="10" height="10" stroke="white" /><rect style="fill:rgb(241,141,59);fill-opacity:1.0;" transform="matrix(1,0.5773502691896256,-1,0.5773502691896256,60,94.64101615137753)" x="0" y="0" width="10" height="10" stroke="white" /><rect style="fill:rgb(241,141,59);fill-opacity:0.0;" transform="matrix(1,0.5773502691896256,-1,0.5773502691896256,50,100.4145188432738)" x="0" y="0" width="10" height="10" stroke="white" /><rect style="fill:rgb(241,141,59);fill-opacity:0.2;" transform="matrix(1,0.5773502691896256,-1,0.5773502691896256,100,83.09401076758503)" x="0" y="0" width="10" height="10" stroke="white" /><rect style="fill:rgb(241,141,59);fill-opacity:1.0;" transform="matrix(1,0.5773502691896256,-1,0.5773502691896256,90,88.86751345948129)" x="0" y="0" width="10" height="10" stroke="white" /><rect style="fill:rgb(241,141,59);fill-opacity:0.0;" transform="matrix(1,0.5773502691896256,-1,0.5773502691896256,80,94.64101615137753)" x="0" y="0" width="10" height="10" stroke="white" /><rect style="fill:rgb(241,141,59);fill-opacity:0.0;" transform="matrix(1,0.5773502691896256,-1,0.5773502691896256,70,100.4145188432738)" x="0" y="0" width="10" height="10" stroke="white" /><rect style="fill:rgb(241,141,59);fill-opacity:0.0;" transform="matrix(1,0.5773502691896256,-1,0.5773502691896256,60,106.18802153517007)" x="0" y="0" width="10" height="10" stroke="white" /><rect transform="matrix(1,0.5773502691896256,0,1,10,88.86751345948129)" x="0" y="0" width="50" height="50" stroke="white" style="fill:white;" /><rect style="fill:rgb(69,155,181);fill-opacity:0.0;" transform="matrix(1,0.5773502691896256,0,1,10,88.86751345948129)" x="0" y="0" width="10" height="10" stroke="white" /><rect style="fill:rgb(69,155,181);fill-opacity:0.8;" transform="matrix(1,0.5773502691896256,0,1,10,98.86751345948127)" x="0" y="0" width="10" height="10" stroke="white" /><rect style="fill:rgb(69,155,181);fill-opacity:0.0;" transform="matrix(1,0.5773502691896256,0,1,10,108.86751345948127)" x="0" y="0" width="10" height="10" stroke="white" /><rect style="fill:rgb(69,155,181);fill-opacity:0.0;" transform="matrix(1,0.5773502691896256,0,1,10,118.86751345948127)" x="0" y="0" width="10" height="10" stroke="white" /><rect style="fill:rgb(69,155,181);fill-opacity:0.2;" transform="matrix(1,0.5773502691896256,0,1,10,128.86751345948127)" x="0" y="0" width="10" height="10" stroke="white" /><rect style="fill:rgb(69,155,181);fill-opacity:0.0;" transform="matrix(1,0.5773502691896256,0,1,20,94.64101615137753)" x="0" y="0" width="10" height="10" stroke="white" /><rect style="fill:rgb(69,155,181);fill-opacity:0.8;" transform="matrix(1,0.5773502691896256,0,1,20,104.64101615137753)" x="0" y="0" width="10" height="10" stroke="white" /><rect style="fill:rgb(69,155,181);fill-opacity:0.0;" transform="matrix(1,0.5773502691896256,0,1,20,114.64101615137753)" x="0" y="0" width="10" height="10" stroke="white" /><rect style="fill:rgb(69,155,181);fill-opacity:0.8;" transform="matrix(1,0.5773502691896256,0,1,20,124.64101615137753)" x="0" y="0" width="10" height="10" stroke="white" /><rect style="fill:rgb(69,155,181);fill-opacity:0.8;" transform="matrix(1,0.5773502691896256,0,1,20,134.64101615137753)" x="0" y="0" width="10" height="10" stroke="white" /><rect style="fill:rgb(69,155,181);fill-opacity:0.0;" transform="matrix(1,0.5773502691896256,0,1,30,100.4145188432738)" x="0" y="0" width="10" height="10" stroke="white" /><rect style="fill:rgb(69,155,181);fill-opacity:0.2;" transform="matrix(1,0.5773502691896256,0,1,30,110.4145188432738)" x="0" y="0" width="10" height="10" stroke="white" /><rect style="fill:rgb(69,155,181);fill-opacity:0.8;" transform="matrix(1,0.5773502691896256,0,1,30,120.4145188432738)" x="0" y="0" width="10" height="10" stroke="white" /><rect style="fill:rgb(69,155,181);fill-opacity:0.2;" transform="matrix(1,0.5773502691896256,0,1,30,130.4145188432738)" x="0" y="0" width="10" height="10" stroke="white" /><rect style="fill:rgb(69,155,181);fill-opacity:0.0;" transform="matrix(1,0.5773502691896256,0,1,30,140.4145188432738)" x="0" y="0" width="10" height="10" stroke="white" /><rect style="fill:rgb(69,155,181);fill-opacity:0.8;" transform="matrix(1,0.5773502691896256,0,1,40,106.18802153517007)" x="0" y="0" width="10" height="10" stroke="white" /><rect style="fill:rgb(69,155,181);fill-opacity:0.8;" transform="matrix(1,0.5773502691896256,0,1,40,116.18802153517007)" x="0" y="0" width="10" height="10" stroke="white" /><rect style="fill:rgb(69,155,181);fill-opacity:0.8;" transform="matrix(1,0.5773502691896256,0,1,40,126.18802153517007)" x="0" y="0" width="10" height="10" stroke="white" /><rect style="fill:rgb(69,155,181);fill-opacity:1.0;" transform="matrix(1,0.5773502691896256,0,1,40,136.18802153517007)" x="0" y="0" width="10" height="10" stroke="white" /><rect style="fill:rgb(69,155,181);fill-opacity:0.8;" transform="matrix(1,0.5773502691896256,0,1,40,146.18802153517007)" x="0" y="0" width="10" height="10" stroke="white" /><rect style="fill:rgb(69,155,181);fill-opacity:1.0;" transform="matrix(1,0.5773502691896256,0,1,50,111.9615242270663)" x="0" y="0" width="10" height="10" stroke="white" /><rect style="fill:rgb(69,155,181);fill-opacity:0.0;" transform="matrix(1,0.5773502691896256,0,1,50,121.9615242270663)" x="0" y="0" width="10" height="10" stroke="white" /><rect style="fill:rgb(69,155,181);fill-opacity:0.0;" transform="matrix(1,0.5773502691896256,0,1,50,131.96152422706632)" x="0" y="0" width="10" height="10" stroke="white" /><rect style="fill:rgb(69,155,181);fill-opacity:1.0;" transform="matrix(1,0.5773502691896256,0,1,50,141.96152422706632)" x="0" y="0" width="10" height="10" stroke="white" /><rect style="fill:rgb(69,155,181);fill-opacity:0.2;" transform="matrix(1,0.5773502691896256,0,1,50,151.96152422706632)" x="0" y="0" width="10" height="10" stroke="white" /><rect transform="matrix(1,0.5773502691896256,0,1,10,138.86751345948127)" x="0" y="0" width="50" height="50" stroke="white" style="fill:white;" /><rect style="fill:rgb(69,155,181);fill-opacity:0.0;" transform="matrix(1,0.5773502691896256,0,1,10,138.86751345948127)" x="0" y="0" width="10" height="10" stroke="white" /><rect style="fill:rgb(69,155,181);fill-opacity:1.0;" transform="matrix(1,0.5773502691896256,0,1,10,148.86751345948127)" x="0" y="0" width="10" height="10" stroke="white" /><rect style="fill:rgb(69,155,181);fill-opacity:0.2;" transform="matrix(1,0.5773502691896256,0,1,10,158.86751345948127)" x="0" y="0" width="10" height="10" stroke="white" /><rect style="fill:rgb(69,155,181);fill-opacity:1.0;" transform="matrix(1,0.5773502691896256,0,1,10,168.86751345948127)" x="0" y="0" width="10" height="10" stroke="white" /><rect style="fill:rgb(69,155,181);fill-opacity:1.0;" transform="matrix(1,0.5773502691896256,0,1,10,178.86751345948127)" x="0" y="0" width="10" height="10" stroke="white" /><rect style="fill:rgb(69,155,181);fill-opacity:1.0;" transform="matrix(1,0.5773502691896256,0,1,20,144.64101615137753)" x="0" y="0" width="10" height="10" stroke="white" /><rect style="fill:rgb(69,155,181);fill-opacity:0.8;" transform="matrix(1,0.5773502691896256,0,1,20,154.64101615137753)" x="0" y="0" width="10" height="10" stroke="white" /><rect style="fill:rgb(69,155,181);fill-opacity:1.0;" transform="matrix(1,0.5773502691896256,0,1,20,164.64101615137753)" x="0" y="0" width="10" height="10" stroke="white" /><rect style="fill:rgb(69,155,181);fill-opacity:0.2;" transform="matrix(1,0.5773502691896256,0,1,20,174.64101615137753)" x="0" y="0" width="10" height="10" stroke="white" /><rect style="fill:rgb(69,155,181);fill-opacity:0.0;" transform="matrix(1,0.5773502691896256,0,1,20,184.64101615137753)" x="0" y="0" width="10" height="10" stroke="white" /><rect style="fill:rgb(69,155,181);fill-opacity:1.0;" transform="matrix(1,0.5773502691896256,0,1,30,150.41451884327378)" x="0" y="0" width="10" height="10" stroke="white" /><rect style="fill:rgb(69,155,181);fill-opacity:0.2;" transform="matrix(1,0.5773502691896256,0,1,30,160.4145188432738)" x="0" y="0" width="10" height="10" stroke="white" /><rect style="fill:rgb(69,155,181);fill-opacity:1.0;" transform="matrix(1,0.5773502691896256,0,1,30,170.4145188432738)" x="0" y="0" width="10" height="10" stroke="white" /><rect style="fill:rgb(69,155,181);fill-opacity:0.8;" transform="matrix(1,0.5773502691896256,0,1,30,180.4145188432738)" x="0" y="0" width="10" height="10" stroke="white" /><rect style="fill:rgb(69,155,181);fill-opacity:0.8;" transform="matrix(1,0.5773502691896256,0,1,30,190.4145188432738)" x="0" y="0" width="10" height="10" stroke="white" /><rect style="fill:rgb(69,155,181);fill-opacity:0.0;" transform="matrix(1,0.5773502691896256,0,1,40,156.18802153517004)" x="0" y="0" width="10" height="10" stroke="white" /><rect style="fill:rgb(69,155,181);fill-opacity:1.0;" transform="matrix(1,0.5773502691896256,0,1,40,166.18802153517004)" x="0" y="0" width="10" height="10" stroke="white" /><rect style="fill:rgb(69,155,181);fill-opacity:0.2;" transform="matrix(1,0.5773502691896256,0,1,40,176.18802153517004)" x="0" y="0" width="10" height="10" stroke="white" /><rect style="fill:rgb(69,155,181);fill-opacity:0.8;" transform="matrix(1,0.5773502691896256,0,1,40,186.18802153517004)" x="0" y="0" width="10" height="10" stroke="white" /><rect style="fill:rgb(69,155,181);fill-opacity:0.2;" transform="matrix(1,0.5773502691896256,0,1,40,196.18802153517004)" x="0" y="0" width="10" height="10" stroke="white" /><rect style="fill:rgb(69,155,181);fill-opacity:0.0;" transform="matrix(1,0.5773502691896256,0,1,50,161.9615242270663)" x="0" y="0" width="10" height="10" stroke="white" /><rect style="fill:rgb(69,155,181);fill-opacity:1.0;" transform="matrix(1,0.5773502691896256,0,1,50,171.9615242270663)" x="0" y="0" width="10" height="10" stroke="white" /><rect style="fill:rgb(69,155,181);fill-opacity:0.8;" transform="matrix(1,0.5773502691896256,0,1,50,181.96152422706632)" x="0" y="0" width="10" height="10" stroke="white" /><rect style="fill:rgb(69,155,181);fill-opacity:0.0;" transform="matrix(1,0.5773502691896256,0,1,50,191.96152422706632)" x="0" y="0" width="10" height="10" stroke="white" /><rect style="fill:rgb(69,155,181);fill-opacity:0.8;" transform="matrix(1,0.5773502691896256,0,1,50,201.96152422706632)" x="0" y="0" width="10" height="10" stroke="white" /><rect transform="matrix(1,-0.5773502691896256,0,1,60,117.73502691896256)" x="0" y="0" width="50" height="50" stroke="white" style="fill:white;" /><rect style="fill:rgb(103,124,131);fill-opacity:0.2;" transform="matrix(1,-0.5773502691896256,0,1,60,117.73502691896256)" x="0" y="0" width="10" height="10" stroke="white" /><rect style="fill:rgb(103,124,131);fill-opacity:0.8;" transform="matrix(1,-0.5773502691896256,0,1,60,127.73502691896256)" x="0" y="0" width="10" height="10" stroke="white" /><rect style="fill:rgb(103,124,131);fill-opacity:1.0;" transform="matrix(1,-0.5773502691896256,0,1,60,137.73502691896255)" x="0" y="0" width="10" height="10" stroke="white" /><rect style="fill:rgb(103,124,131);fill-opacity:0.2;" transform="matrix(1,-0.5773502691896256,0,1,60,147.73502691896257)" x="0" y="0" width="10" height="10" stroke="white" /><rect style="fill:rgb(103,124,131);fill-opacity:1.0;" transform="matrix(1,-0.5773502691896256,0,1,60,157.73502691896257)" x="0" y="0" width="10" height="10" stroke="white" /><rect style="fill:rgb(103,124,131);fill-opacity:0.8;" transform="matrix(1,-0.5773502691896256,0,1,70,111.9615242270663)" x="0" y="0" width="10" height="10" stroke="white" /><rect style="fill:rgb(103,124,131);fill-opacity:0.0;" transform="matrix(1,-0.5773502691896256,0,1,70,121.9615242270663)" x="0" y="0" width="10" height="10" stroke="white" /><rect style="fill:rgb(103,124,131);fill-opacity:1.0;" transform="matrix(1,-0.5773502691896256,0,1,70,131.96152422706632)" x="0" y="0" width="10" height="10" stroke="white" /><rect style="fill:rgb(103,124,131);fill-opacity:0.8;" transform="matrix(1,-0.5773502691896256,0,1,70,141.9615242270663)" x="0" y="0" width="10" height="10" stroke="white" /><rect style="fill:rgb(103,124,131);fill-opacity:1.0;" transform="matrix(1,-0.5773502691896256,0,1,70,151.9615242270663)" x="0" y="0" width="10" height="10" stroke="white" /><rect style="fill:rgb(103,124,131);fill-opacity:0.0;" transform="matrix(1,-0.5773502691896256,0,1,80,106.18802153517007)" x="0" y="0" width="10" height="10" stroke="white" /><rect style="fill:rgb(103,124,131);fill-opacity:0.0;" transform="matrix(1,-0.5773502691896256,0,1,80,116.18802153517007)" x="0" y="0" width="10" height="10" stroke="white" /><rect style="fill:rgb(103,124,131);fill-opacity:1.0;" transform="matrix(1,-0.5773502691896256,0,1,80,126.18802153517007)" x="0" y="0" width="10" height="10" stroke="white" /><rect style="fill:rgb(103,124,131);fill-opacity:0.8;" transform="matrix(1,-0.5773502691896256,0,1,80,136.18802153517007)" x="0" y="0" width="10" height="10" stroke="white" /><rect style="fill:rgb(103,124,131);fill-opacity:0.0;" transform="matrix(1,-0.5773502691896256,0,1,80,146.18802153517007)" x="0" y="0" width="10" height="10" stroke="white" /><rect style="fill:rgb(103,124,131);fill-opacity:1.0;" transform="matrix(1,-0.5773502691896256,0,1,90,100.4145188432738)" x="0" y="0" width="10" height="10" stroke="white" /><rect style="fill:rgb(103,124,131);fill-opacity:1.0;" transform="matrix(1,-0.5773502691896256,0,1,90,110.4145188432738)" x="0" y="0" width="10" height="10" stroke="white" /><rect style="fill:rgb(103,124,131);fill-opacity:1.0;" transform="matrix(1,-0.5773502691896256,0,1,90,120.4145188432738)" x="0" y="0" width="10" height="10" stroke="white" /><rect style="fill:rgb(103,124,131);fill-opacity:1.0;" transform="matrix(1,-0.5773502691896256,0,1,90,130.4145188432738)" x="0" y="0" width="10" height="10" stroke="white" /><rect style="fill:rgb(103,124,131);fill-opacity:0.0;" transform="matrix(1,-0.5773502691896256,0,1,90,140.4145188432738)" x="0" y="0" width="10" height="10" stroke="white" /><rect style="fill:rgb(103,124,131);fill-opacity:0.0;" transform="matrix(1,-0.5773502691896256,0,1,100,94.64101615137753)" x="0" y="0" width="10" height="10" stroke="white" /><rect style="fill:rgb(103,124,131);fill-opacity:0.0;" transform="matrix(1,-0.5773502691896256,0,1,100,104.64101615137753)" x="0" y="0" width="10" height="10" stroke="white" /><rect style="fill:rgb(103,124,131);fill-opacity:0.0;" transform="matrix(1,-0.5773502691896256,0,1,100,114.64101615137753)" x="0" y="0" width="10" height="10" stroke="white" /><rect style="fill:rgb(103,124,131);fill-opacity:0.0;" transform="matrix(1,-0.5773502691896256,0,1,100,124.64101615137753)" x="0" y="0" width="10" height="10" stroke="white" /><rect style="fill:rgb(103,124,131);fill-opacity:1.0;" transform="matrix(1,-0.5773502691896256,0,1,100,134.64101615137753)" x="0" y="0" width="10" height="10" stroke="white" /></svg>
